<?xml version="1.0" standalone="no"?>
<!DOCTYPE svg PUBLIC "-//W3C//DTD SVG 20010904//EN"
 "http://www.w3.org/TR/2001/REC-SVG-20010904/DTD/svg10.dtd">
<svg version="1.0" xmlns="http://www.w3.org/2000/svg"
 width="512.000000pt" height="512.000000pt" viewBox="0 0 512.000000 512.000000"
 preserveAspectRatio="xMidYMid meet">
<metadata>
Created by potrace 1.11, written by Peter Selinger 2001-2013
</metadata>
<g transform="translate(0.000000,512.000000) scale(0.100000,-0.100000)"
fill="#000000" stroke="none">
<path d="M2379 5116 c-2 -2 -35 -6 -74 -10 -38 -3 -97 -10 -130 -16 -33 -6
-76 -13 -95 -16 -123 -19 -478 -130 -557 -173 -10 -6 -55 -28 -101 -50 -187
-90 -400 -233 -559 -376 -128 -115 -184 -175 -324 -342 -38 -46 -167 -241
-211 -319 -69 -124 -130 -257 -176 -384 -32 -90 -78 -246 -86 -293 -3 -15 -7
-35 -10 -45 -3 -9 -7 -34 -11 -56 -3 -21 -7 -41 -9 -45 -2 -3 -7 -33 -11 -66
-3 -33 -10 -89 -15 -125 -8 -72 -5 -475 5 -530 3 -19 12 -75 20 -125 29 -174
78 -357 142 -520 37 -93 123 -273 161 -335 12 -19 29 -48 38 -65 32 -58 148
-219 219 -304 409 -489 1005 -819 1620 -896 28 -4 77 -10 110 -15 59 -8 466
-5 515 4 14 2 45 7 70 10 195 28 500 111 649 177 478 214 859 531 1134 945
198 299 343 668 392 1004 3 19 7 44 10 55 19 95 27 458 13 605 -34 340 -133
662 -296 965 -50 92 -129 223 -142 235 -3 3 -23 30 -44 60 -266 376 -714 719
-1157 884 -173 64 -410 124 -554 141 -27 3 -61 8 -75 11 -29 6 -455 16 -461
10z m376 -471 c75 -7 112 -12 150 -19 17 -3 45 -8 64 -11 19 -3 78 -17 130
-31 494 -131 927 -445 1214 -879 123 -187 253 -494 291 -685 2 -14 9 -47 14
-75 9 -45 16 -94 28 -190 11 -89 4 -393 -10 -470 -2 -11 -7 -45 -12 -75 -4
-30 -8 -57 -9 -60 -1 -3 -5 -21 -9 -40 -30 -138 -90 -308 -162 -458 -150 -314
-355 -562 -636 -773 -239 -178 -534 -311 -818 -368 -91 -19 -102 -20 -154 -26
-28 -3 -66 -8 -85 -11 -77 -13 -380 -6 -466 10 -11 2 -42 7 -70 10 -27 4 -108
22 -180 41 -584 149 -1077 547 -1348 1090 -173 346 -249 747 -213 1120 14 139
24 196 57 329 191 762 819 1371 1580 1532 69 14 137 27 159 29 14 1 59 6 100
10 41 4 76 8 77 9 4 4 253 -3 308 -9z"/>
<path d="M2489 4177 c-79 -30 -138 -93 -154 -167 -4 -19 -8 -363 -8 -765 1
-809 -2 -772 66 -843 23 -24 177 -107 532 -285 496 -248 501 -250 565 -251 54
-1 73 4 112 27 59 34 96 82 112 144 13 54 13 71 -3 129 -24 88 -45 102 -499
329 l-420 209 1 638 c0 691 -1 696 -55 762 -57 69 -170 102 -249 73z"/>
</g>
</svg>
